<svg width="244" height="208" viewBox="0 0 244 208" fill="none" xmlns="http://www.w3.org/2000/svg">
<path d="M228 104C228 161.438 181.438 208 124 208C66.5624 208 20 161.438 20 104C20 46.5624 66.5624 0 124 0C181.438 0 228 46.5624 228 104Z" fill="#F7F7F7"/>
<path d="M58 66C58 60.4772 62.4772 56 68 56H234C239.523 56 244 60.4772 244 66V94C244 99.5228 239.523 104 234 104H68C62.4772 104 58 99.5228 58 94V66Z" fill="#EDEDED"/>
<path d="M231 79.5C231 86.9558 224.956 93 217.5 93C210.044 93 204 86.9558 204 79.5C204 72.0442 210.044 66 217.5 66C224.956 66 231 72.0442 231 79.5Z" fill="#D9D9D9"/>
<path d="M77 88.5C77 86.0147 79.0147 84 81.5 84H192.5C194.985 84 197 86.0147 197 88.5C197 90.9853 194.985 93 192.5 93H81.5C79.0147 93 77 90.9853 77 88.5Z" fill="#D9D9D9"/>
<path d="M123 75.5C123 73.0147 125.015 71 127.5 71H192.5C194.985 71 197 73.0147 197 75.5C197 77.9853 194.985 80 192.5 80H127.5C125.015 80 123 77.9853 123 75.5Z" fill="#E0DFDF"/>
<path d="M0 122C0 116.477 4.47715 112 10 112H176C181.523 112 186 116.477 186 122V150C186 155.523 181.523 160 176 160H10C4.47715 160 0 155.523 0 150V122Z" fill="#EDEDED"/>
<path d="M43 135.5C43 142.956 36.9558 149 29.5 149C22.0442 149 16 142.956 16 135.5C16 128.044 22.0442 122 29.5 122C36.9558 122 43 128.044 43 135.5Z" fill="#D9D9D9"/>
<path d="M50 143.5C50 141.015 52.0147 139 54.5 139H165.5C167.985 139 170 141.015 170 143.5C170 145.985 167.985 148 165.5 148H54.5C52.0147 148 50 145.985 50 143.5Z" fill="#D9D9D9"/>
<path d="M50 128.5C50 126.015 52.0147 124 54.5 124H119.5C121.985 124 124 126.015 124 128.5C124 130.985 121.985 133 119.5 133H54.5C52.0147 133 50 130.985 50 128.5Z" fill="#E4E2E2"/>
</svg>
